<svg height="480" preserveAspectRatio="none" viewBox="0 0 640 480" width="640" xmlns="http://www.w3.org/2000/svg">
	<style>line { stroke: grey; stroke-width: 1.01px; vector-effect: non-scaling-stroke; } </style>
	<line x1="640.08" x2="629.9606" y1="242.0103" y2="240.0" stroke="white" stroke-width="1"/>
	<line x1="640.9808" x2="598.9646" y1="249.2743" y2="240.0"/>
	<line x1="642.1139" x2="567.9685" y1="258.4121" y2="240.0"/>
	<line x1="643.5825" x2="536.9724" y1="270.2558" y2="240.0"/>
	<line x1="645.5617" x2="505.9764" y1="286.2164" y2="240.0"/>
	<line x1="648.3735" x2="474.9803" y1="308.8922" y2="240.0"/>
	<line x1="652.6836" x2="443.9843" y1="343.65" y2="240.0"/>
	<line x1="660.124" x2="412.9882" y1="403.6525" y2="240.0"/>
	<line x1="648.2466" x2="381.9921" y1="504.4691" y2="240.0"/>
	<line x1="484.1233" x2="350.9961" y1="504.4691" y2="240.0"/>
	<line x1="320.0" x2="320.0" y1="504.4691" y2="240.0"/>
	<line x1="155.8767" x2="289.0039" y1="504.4691" y2="240.0"/>
	<line x1="-8.2466" x2="258.0079" y1="504.4691" y2="240.0"/>
	<line x1="-20.124" x2="227.0118" y1="403.6525" y2="240.0"/>
	<line x1="-12.6836" x2="196.0157" y1="343.65" y2="240.0"/>
	<line x1="-8.3735" x2="165.0197" y1="308.8922" y2="240.0"/>
	<line x1="-5.5617" x2="134.0236" y1="286.2164" y2="240.0"/>
	<line x1="-3.5825" x2="103.0276" y1="270.2558" y2="240.0"/>
	<line x1="-2.1139" x2="72.0315" y1="258.4121" y2="240.0"/>
	<line x1="-0.9808" x2="41.0354" y1="249.2743" y2="240.0"/>
	<line x1="-0.08" x2="10.0394" y1="242.0103" y2="240.0"/>
	<line x1="-0.6801" x2="640.6801" y1="246.8498" y2="246.8498"/>
	<line x1="-1.6678" x2="641.6678" y1="254.8144" y2="254.8144"/>
	<line x1="-2.9156" x2="642.9156" y1="264.8773" y2="264.8773"/>
	<line x1="-4.542" x2="644.542" y1="277.9936" y2="277.9936"/>
	<line x1="-6.7503" x2="646.7503" y1="295.8015" y2="295.8015"/>
	<line x1="-9.9204" x2="649.9204" y1="321.3667" y2="321.3667"/>
	<line x1="-14.856" x2="654.856" y1="361.169" y2="361.169"/>
	<line x1="-23.6008" x2="663.6008" y1="431.691" y2="431.691"/>
	<line x1="0.0" x2="640.0" y1="240.0" y2="240.0"/>
</svg>